<svg width="96" height="96" viewBox="0 0 96 96" fill="none" xmlns="http://www.w3.org/2000/svg">
  <rect width="96" height="96" rx="24" fill="#f4f0e6"/>
  <path d="M24 29.5C24 25.3579 27.3579 22 31.5 22H64.5C68.6421 22 72 25.3579 72 29.5V31.75H24V29.5Z" fill="#2D3129"/>
  <path d="M24 37.25H72V64.5C72 68.6421 68.6421 72 64.5 72H31.5C27.3579 72 24 68.6421 24 64.5V37.25Z" fill="#DDD4BF"/>
  <path d="M36 50.25C36 45.1414 40.1414 41 45.25 41H61V47H45.25C43.4551 47 42 48.4551 42 50.25C42 52.0449 43.4551 53.5 45.25 53.5H50.25C55.3586 53.5 59.5 57.6414 59.5 62.75C59.5 67.8586 55.3586 72 50.25 72H36V66H50.25C52.0449 66 53.5 64.5449 53.5 62.75C53.5 60.9551 52.0449 59.5 50.25 59.5H45.25C40.1414 59.5 36 55.3586 36 50.25Z" fill="#56604C"/>
  <circle cx="33.5" cy="27" r="2.5" fill="#DDD4BF"/>
  <circle cx="42.5" cy="27" r="2.5" fill="#DDD4BF"/>
  <circle cx="51.5" cy="27" r="2.5" fill="#DDD4BF"/>
</svg>
